<svg xmlns="http://www.w3.org/2000/svg" width="24.584" height="9.8" viewBox="0 0 24.584 9.8"><g transform="translate(-353.579 41.534)"><path d="M363.5-34.844c0,1.624-1.621,3.11-5.165,3.11a10.484,10.484,0,0,1-4.756-1.033l1.121-1.707a7.326,7.326,0,0,0,3.564.868c1.441,0,2.333-.453,2.333-1.238,0-.73-.694-1.183-2.333-1.183h-1.319V-37.5l2.564-2.244H354.2v-1.789h8.727v1.446l-2.813,2.477C362.36-37.336,363.5-36.262,363.5-34.844Z" transform="translate(0 0)" fill="#fff"/><path d="M364.074-41.534h5.665c4.079,0,6.875,1.9,6.875,4.818s-2.8,4.817-6.875,4.817h-5.665Zm5.523,7.805c2.476,0,4.1-1.143,4.1-2.987s-1.62-2.986-4.1-2.986H366.96v5.974Z" transform="translate(1.55 0)" fill="#fff"/></g></svg>