<svg xmlns="http://www.w3.org/2000/svg" xmlns:xlink="http://www.w3.org/1999/xlink" width="22.512" height="20.3" viewBox="0 0 22.512 20.3"><defs><clipPath id="a"><rect width="22.512" height="20.3" fill="none"/></clipPath></defs><g clip-path="url(#a)"><path d="M54.6,176.68h14.06v-.338q0-4.487,0-8.974a2.978,2.978,0,0,1,.009-.328.741.741,0,0,1,.725-.677.761.761,0,0,1,.789.639,2.035,2.035,0,0,1,.016.328q0,4.967,0,9.935c0,.7-.271.972-.983.972H54.028c-.694,0-.965-.27-.965-.963q0-5.005,0-10.011c0-.565.313-.913.8-.9a.748.748,0,0,1,.733.671,2.954,2.954,0,0,1,.009.328q0,4.487,0,8.974v.345" transform="translate(-50.375 -157.936)" fill="#fff"/><path d="M22.512,7.816a.767.767,0,0,1-.943.815,1.489,1.489,0,0,1-.426-.21Q16.316,5.14,11.5,1.848a.354.354,0,0,0-.48,0Q6.2,5.143,1.372,8.422a1.818,1.818,0,0,1-.329.185.753.753,0,0,1-.915-.279.764.764,0,0,1,.086-.956,2.085,2.085,0,0,1,.317-.249Q5.576,3.692,10.623.263a.89.89,0,0,1,1.263,0q5.088,3.458,10.176,6.916a.879.879,0,0,1,.45.64" transform="translate(0 0.001)" fill="#fff"/><path d="M310.8,4.063c-.618,0-1.2.011-1.775-.006a1.255,1.255,0,0,1-.551-.135.706.706,0,0,1-.331-.826.718.718,0,0,1,.692-.562c.926-.011,1.852-.013,2.777,0a.717.717,0,0,1,.716.712c.019.69.02,1.381,0,2.07a.755.755,0,0,1-.774.714.766.766,0,0,1-.749-.74c-.011-.2,0-.4,0-.606s0-.386,0-.622" transform="translate(-292.51 -2.398)" fill="#fff"/></g></svg>