<svg xmlns="http://www.w3.org/2000/svg" xmlns:xlink="http://www.w3.org/1999/xlink" width="23.81" height="15.718" viewBox="0 0 23.81 15.718">
  <defs>
    <clipPath id="clip-path">
      <rect id="Rectangle_1480" data-name="Rectangle 1480" width="23.81" height="15.718" transform="translate(0 0)" fill="#534ed9"/>
    </clipPath>
  </defs>
  <g id="Group_220" data-name="Group 220" transform="translate(0 0)" clip-path="url(#clip-path)">
    <path id="Path_343" data-name="Path 343" d="M11.9,15.718C5.525,15.718.534,8.63.325,8.328L0,7.859.325,7.39C.534,7.088,5.525,0,11.9,0s11.37,7.088,11.579,7.39l.325.469-.325.469c-.209.3-5.2,7.39-11.579,7.39M2.028,7.859C3.216,9.38,7.26,14.074,11.9,14.074s8.687-4.694,9.876-6.215C20.592,6.338,16.549,1.645,11.9,1.645S3.216,6.338,2.028,7.859" fill="#534ed9"/>
    <path id="Path_344" data-name="Path 344" d="M11.9,15.274a7.191,7.191,0,1,1,7.19-7.191,7.2,7.2,0,0,1-7.19,7.191m0-12.737a5.546,5.546,0,1,0,5.546,5.546A5.553,5.553,0,0,0,11.9,2.537" fill="#534ed9"/>
    <path id="Path_345" data-name="Path 345" d="M13.385,8.263a1.659,1.659,0,0,1-.944-3.025,2.952,2.952,0,0,0-.536-.054,2.922,2.922,0,1,0,2.844,2.362,1.656,1.656,0,0,1-1.364.717" fill="#534ed9"/>
  </g>
</svg>
